
<svg width="512" height="512" viewBox="0 0 512 512" fill="none" xmlns="http://www.w3.org/2000/svg">
<path d="M144.1 329.8C58.9 345.3 0 378 0 416C0 469 114.6 512 256 512C397.4 512 512 469 512 416C512 378 453.1 345.3 367.9 329.8L356 345.4L344 361.3C410.5 370.6 464 394.4 464 415.9C464 446.8 370.9 471.9 256 471.9C141.1 471.9 48 446.9 48 416C48 394.4 101.5 371.7 168 362.4" fill="#D3185C"/>
<path d="M238.4 410.5C120.4 239.5 98.5 221.9 98.5 159.1C98.5 73.0002 168.3 3.2002 254.4 3.2002C340.5 3.2002 410.2 73.0002 410.2 159.1C410.2 221.9 388.3 239.5 270.3 410.5C262.7 421.7 246.1 421.7 238.4 410.5ZM254.4 224C290.3 224 319.3 194.9 319.3 159.1C319.3 123.3 290.2 94.2002 254.4 94.2002C218.6 94.2002 189.5 123.3 189.5 159.1C189.5 194.9 218.5 224 254.4 224Z" fill="#D3185C"/>
</svg>
