<svg xmlns="http://www.w3.org/2000/svg" xmlns:xlink="http://www.w3.org/1999/xlink" fill="none" version="1.1" width="75" height="75" viewBox="0 0 75 75"><defs><clipPath id="master_svg0_0_667"><rect x="0" y="0" width="75" height="75" rx="0"/></clipPath></defs><g clip-path="url(#master_svg0_0_667)"><g><path d="M12.124715125579833,56.39434237060547C10.541605125579835,56.39434237060547,9.220805125579833,55.86394237060547,8.162345125579835,54.80324237060547C7.1038591255798345,53.74244237060547,6.573491995579834,52.42174237060547,6.571195125579834,50.84084237060547C6.571195125579834,50.84084237060547,6.571195125579834,17.26884237060547,6.571195125579834,17.26884237060547C6.571195125579834,15.688012370605469,7.101586125579834,14.367212370605468,8.162345125579835,13.306452370605468C9.223105125579835,12.24569537060547,10.542745125579835,11.716476230605469,12.121285125579835,11.71874966397547C12.121285125579835,11.71874966397547,62.87949512557984,11.71874966397547,62.87949512557984,11.71874966397547C64.46039512557984,11.71874966397547,65.78019512557984,12.247992370605468,66.83859512557984,13.306452370605468C67.89699512557983,14.364942370605469,68.42739512557984,15.685712370605469,68.42979512557983,17.26884237060547C68.42979512557983,17.26884237060547,68.42979512557983,50.84434237060547,68.42979512557983,50.84434237060547C68.42979512557983,52.42504237060547,67.89939512557984,53.74474237060547,66.83859512557984,54.80324237060547C65.77779512557984,55.861642370605466,64.45709512557983,56.392042370605466,62.87629512557984,56.39434237060547C62.87629512557984,56.39434237060547,12.124715125579833,56.39434237060547,12.124715125579833,56.39434237060547C12.124715125579833,56.39434237060547,12.124715125579833,56.39434237060547,12.124715125579833,56.39434237060547ZM12.124715125579833,52.957742370605466C12.124715125579833,52.957742370605466,62.87949512557984,52.957742370605466,62.87949512557984,52.957742370605466C63.406595125579834,52.957742370605466,63.89109512557983,52.73674237060547,64.33339512557984,52.294442370605466C64.77539512557983,51.852442370605466,64.99549512557984,51.36774237060547,64.99309512557983,50.84084237060547C64.99309512557983,50.84084237060547,64.99309512557983,17.26884237060547,64.99309512557983,17.26884237060547C64.99309512557983,16.74190237060547,64.77329512557984,16.257332370605468,64.33339512557984,15.815152370605468C63.89109512557983,15.372982370605468,63.40549512557983,15.15190237060547,62.87629512557984,15.15190237060547C62.87629512557984,15.15190237060547,12.124715125579833,15.15190237060547,12.124715125579833,15.15190237060547C11.595495125579834,15.15190237060547,11.109775125579834,15.372982370605468,10.667605125579833,15.815152370605468C10.227725125579834,16.25505237060547,10.007785125579833,16.739602370605468,10.007785125579833,17.26884237060547C10.007785125579833,17.26884237060547,10.007785125579833,50.84434237060547,10.007785125579833,50.84434237060547C10.007785125579833,51.37124237060547,10.227725125579834,51.85454237060547,10.667605125579833,52.294442370605466C11.107475125579834,52.73434237060547,11.592045125579833,52.95544237060547,12.121285125579835,52.957742370605466" fill="#070026" fill-opacity="1"/></g><g><path d="M2.34375,59.82960891723633C2.34375,59.82960891723633,2.34375,63.266248917236325,2.34375,63.266248917236325C2.34375,63.266248917236325,72.65625,63.266248917236325,72.65625,63.266248917236325C72.65625,63.266248917236325,72.65625,59.82960891723633,72.65625,59.82960891723633C72.65625,59.82960891723633,2.34375,59.82960891723633,2.34375,59.82960891723633C2.34375,59.82960891723633,2.34375,59.82960891723633,2.34375,59.82960891723633Z" fill="#D3185C" fill-opacity="1"/></g><g><path d="M16.860892614135743,28.720078049316406C16.860892614135743,28.720078049316406,16.860892614135743,21.878598049316405,16.860892614135743,21.878598049316405C16.860892614135743,21.878598049316405,14.230827614135743,24.517028049316405,14.230827614135743,24.517028049316405C14.230827614135743,24.517028049316405,13.581632614135742,23.876018049316407,13.581632614135742,23.876018049316407C13.581632614135742,23.876018049316407,17.318652614135743,20.147438049316406,17.318652614135743,20.147438049316406C17.318652614135743,20.147438049316406,21.047342614135744,23.876018049316407,21.047342614135744,23.876018049316407C21.047342614135744,23.876018049316407,20.41481261413574,24.517028049316405,20.41481261413574,24.517028049316405C20.41481261413574,24.517028049316405,17.776432614135743,21.878598049316405,17.776432614135743,21.878598049316405C17.776432614135743,21.878598049316405,17.776432614135743,28.720078049316406,17.776432614135743,28.720078049316406C17.776432614135743,28.720078049316406,16.860892614135743,28.720078049316406,16.860892614135743,28.720078049316406C16.860892614135743,28.720078049316406,16.860892614135743,28.720078049316406,16.860892614135743,28.720078049316406Z" fill="#070026" fill-opacity="1"/></g><g><path d="M29.206880152587892,28.720080571289063C29.206880152587892,28.720080571289063,28.56609015258789,28.087500571289063,28.56609015258789,28.087500571289063C28.56609015258789,28.087500571289063,31.20445015258789,25.449140571289064,31.20445015258789,25.449140571289064C31.20445015258789,25.449140571289064,24.37125015258789,25.449140571289064,24.37125015258789,25.449140571289064C24.37125015258789,25.449140571289064,24.37125015258789,24.53367057128906,24.37125015258789,24.53367057128906C24.37125015258789,24.53367057128906,31.20445015258789,24.53367057128906,31.20445015258789,24.53367057128906C31.20445015258789,24.53367057128906,28.56609015258789,21.903584571289063,28.56609015258789,21.903584571289063C28.56609015258789,21.903584571289063,29.206880152587892,21.262710571289062,29.206880152587892,21.262710571289062C29.206880152587892,21.262710571289062,32.93578015258789,24.991410571289062,32.93578015258789,24.991410571289062C32.93578015258789,24.991410571289062,29.206880152587892,28.720080571289063,29.206880152587892,28.720080571289063C29.206880152587892,28.720080571289063,29.206880152587892,28.720080571289063,29.206880152587892,28.720080571289063Z" fill="#D3185C" fill-opacity="1"/></g><g><path d="M48.627418975830075,29.78553239440918C48.627418975830075,29.78553239440918,48.627418975830075,19.13203239440918,48.627418975830075,19.13203239440918C48.627418975830075,19.13203239440918,49.30991897583008,19.13203239440918,49.30991897583008,19.13203239440918C49.30991897583008,19.13203239440918,49.30991897583008,29.78553239440918,49.30991897583008,29.78553239440918C49.30991897583008,29.78553239440918,48.627418975830075,29.78553239440918,48.627418975830075,29.78553239440918C48.627418975830075,29.78553239440918,48.627418975830075,29.78553239440918,48.627418975830075,29.78553239440918ZM50.92452897583008,22.32804239440918C50.87460897583008,21.90635239440918,50.67210897583008,21.57898239440918,50.31702897583008,21.345942394409178C49.961948975830076,21.11290239440918,49.52624897583008,20.99637239440918,49.01014897583008,20.99637239440918C48.63304897583008,20.99637239440918,48.302808975830075,21.05740239440918,48.01991897583008,21.17948239440918C47.73960897583008,21.30155239440918,47.52046897583008,21.46938239440918,47.36225897583008,21.68301239440918C47.206868975830076,21.89665239440918,47.129298975830075,22.139392394409178,47.129298975830075,22.41127239440918C47.129298975830075,22.63877239440918,47.18343897583008,22.83436239440918,47.29147897583008,22.99805239440918C47.40257897583008,23.15897239440918,47.54413897583008,23.29352239440918,47.71593897583008,23.40171239440918C47.88796897583008,23.50711239440918,48.06843897583008,23.59453239440918,48.25710897583008,23.663902394409178C48.44577897583008,23.73047239440918,48.618978975830075,23.78461239440918,48.77718897583008,23.82609239440918C48.77718897583008,23.82609239440918,49.64273897583008,24.05929239440918,49.64273897583008,24.05929239440918C49.86468897583008,24.11742239440918,50.11171897583008,24.19805239440918,50.38358897583008,24.30070239440918C50.65827897583008,24.40336239440918,50.92030897583008,24.54328239440918,51.17015897583008,24.720942394409178C51.42257897583008,24.89578239440918,51.63069897583008,25.12031239440918,51.79429897583008,25.39500239440918C51.95788897583008,25.66969239440918,52.039918975830076,26.00672239440918,52.039918975830076,26.40633239440918C52.039918975830076,26.866872394409178,51.91921897583008,27.28289239440918,51.677808975830075,27.65484239440918C51.43921897583008,28.02656239440918,51.08952897583008,28.32187239440918,50.62897897583008,28.541252394409177C50.17124897583008,28.76039239440918,49.61507897583008,28.86984239440918,48.96022897583008,28.86984239440918C48.34991897583008,28.86984239440918,47.82140897583008,28.77140239440918,47.374688975830075,28.574532394409182C46.931008975830075,28.37742239440918,46.58132797583008,28.10273239440918,46.32609397583008,27.75047239440918C46.07367197583008,27.398202394409182,45.93070027583008,26.98898239440918,45.89741897583008,26.52281239440918C45.89741897583008,26.52281239440918,46.962888975830076,26.52281239440918,46.962888975830076,26.52281239440918C46.99054897583008,26.84461239440918,47.09882897583008,27.11109239440918,47.287498975830076,27.32179239440918C47.47874897583008,27.52992239440918,47.72015897583008,27.68531239440918,48.01147897583008,27.78797239440918C48.30561897583008,27.88781239440918,48.621798975830075,27.93773239440918,48.96022897583008,27.93773239440918C49.35421897583008,27.93773239440918,49.70788897583008,27.87398239440918,50.02148897583008,27.74625239440918C50.33507897583008,27.61594239440918,50.583278975830076,27.43547239440918,50.76632897583008,27.20531239440918C50.94960897583008,26.97234239440918,51.04101897583008,26.70047239440918,51.04101897583008,26.38969239440918C51.04101897583008,26.10656239440918,50.96202897583008,25.87640239440918,50.80382897583008,25.69875239440918C50.64562897583008,25.52133239440918,50.437728975830076,25.37695239440918,50.179688975830075,25.266092394409178C49.92163897583008,25.15500239440918,49.64273897583008,25.05797239440918,49.34319897583008,24.97476239440918C49.34319897583008,24.97476239440918,48.29437897583008,24.67523239440918,48.29437897583008,24.67523239440918C47.62874897583008,24.48375239440918,47.10163897583008,24.21047239440918,46.713046975830075,23.85539239440918C46.32468797583008,23.50031239440918,46.130623975830076,23.03550239440918,46.130623975830076,22.46121239440918C46.130623975830076,21.98402239440918,46.25952997583008,21.567892394409178,46.51757697583008,21.21276239440918C46.77820197583008,20.85487239440918,47.127888975830075,20.57744239440918,47.56616897583008,20.380482394409178C48.00726897583008,20.18072239440918,48.499688975830075,20.08085239440918,49.04343897583008,20.08085239440918C49.59280897583008,20.08085239440918,50.08124897583008,20.17933239440918,50.50827897583008,20.37630239440918C50.93554897583008,20.570512394409178,51.27421897583008,20.83685239440918,51.52382897583008,21.17531239440918C51.77624897583008,21.51377239440918,51.90937897583008,21.898032394409178,51.923198975830076,22.32804239440918C51.923198975830076,22.32804239440918,50.92452897583008,22.32804239440918,50.92452897583008,22.32804239440918C50.92452897583008,22.32804239440918,50.92452897583008,22.32804239440918,50.92452897583008,22.32804239440918Z" fill="#070026" fill-opacity="1"/></g><g><path d="M55.80070548706055,28.72008099243164C55.80070548706055,28.72008099243164,55.80070548706055,20.19736099243164,55.80070548706055,20.19736099243164C55.80070548706055,20.19736099243164,56.483205487060545,20.19736099243164,56.483205487060545,20.19736099243164C56.483205487060545,20.19736099243164,56.483205487060545,28.72008099243164,56.483205487060545,28.72008099243164C56.483205487060545,28.72008099243164,55.80070548706055,28.72008099243164,55.80070548706055,28.72008099243164C55.80070548706055,28.72008099243164,55.80070548706055,28.72008099243164,55.80070548706055,28.72008099243164ZM56.20031548706055,27.76289099243164C55.60101548706055,27.76289099243164,55.084925487060545,27.62156099243164,54.652265487060546,27.33844099243164C54.21937448706055,27.05555099243164,53.88656048706055,26.665780992431642,53.653357487060546,26.16914099243164C53.42038848706055,25.67250099243164,53.30390548706055,25.105080992431642,53.30390548706055,24.467110992431643C53.30390548706055,23.81789099243164,53.42320348706055,23.24496099243164,53.66179748706055,22.748370992431642C53.903203487060544,22.24898099243164,54.238825487060545,21.859200992431642,54.66890548706055,21.578980992431642C55.101555487060544,21.29599099243164,55.60664548706055,21.15450099243164,56.18367548706055,21.15450099243164C56.632965487060545,21.15450099243164,57.038205487060544,21.23773099243164,57.398675487060544,21.40420099243164C57.759375487060545,21.57066099243164,58.05491548706055,21.80369099243164,58.285075487060546,22.10332099243164C58.515465487060546,22.402940992431642,58.658435487060544,22.75251099243164,58.713755487060546,23.15203099243164C58.713755487060546,23.15203099243164,57.73171548706055,23.15203099243164,57.73171548706055,23.15203099243164C57.656715487060545,22.86073099243164,57.49031548706055,22.60270099243164,57.232265487060545,22.37798099243164C56.977025487060544,22.150500992431642,56.632965487060545,22.03673099243164,56.20031548706055,22.03673099243164C55.81734548706055,22.03673099243164,55.48171548706055,22.13662099243164,55.193205487060546,22.33636099243164C54.90750548706055,22.53335099243164,54.68414548706055,22.81216099243164,54.52312548706055,23.17282099243164C54.36515548706055,23.53078099243164,54.28593848706055,23.95102099243164,54.28593848706055,24.43383099243164C54.28593848706055,24.92766099243164,54.36374548706055,25.35750099243164,54.519135487060545,25.72383099243164C54.677105487060544,26.08992099243164,54.89906548706055,26.37445099243164,55.184765487060545,26.57695099243164C55.47327548706055,26.77945099243164,55.811955487060544,26.880700992431642,56.20031548706055,26.880700992431642C56.45554548706055,26.880700992431642,56.68710548706055,26.83641099243164,56.895235487060546,26.74758099243164C57.10335548706055,26.658750992431642,57.27937548706055,26.53125099243164,57.42374548706054,26.36461099243164C57.56812548706055,26.19820099243164,57.67054548706055,25.99852099243164,57.73171548706055,25.765550992431642C57.73171548706055,25.765550992431642,58.713755487060546,25.765550992431642,58.713755487060546,25.765550992431642C58.658435487060544,26.14266099243164,58.52109548706055,26.48250099243164,58.30171548706055,26.78508099243164C58.085395487060545,27.084610992431642,57.79828548706055,27.32320099243164,57.44039548706055,27.50086099243164C57.08531548706055,27.67547099243164,56.67187548706055,27.76289099243164,56.20031548706055,27.76289099243164C56.20031548706055,27.76289099243164,56.20031548706055,27.76289099243164,56.20031548706055,27.76289099243164Z" fill="#D3185C" fill-opacity="1"/></g><g><path d="M15.684443231811523,44.19257547241211C15.684443231811523,44.19257547241211,14.602453231811523,44.19257547241211,14.602453231811523,44.19257547241211C14.602453231811523,44.19257547241211,17.731903231811522,35.66976547241211,17.731903231811522,35.66976547241211C17.731903231811522,35.66976547241211,18.79722323181152,35.66976547241211,18.79722323181152,35.66976547241211C18.79722323181152,35.66976547241211,21.926673231811524,44.19257547241211,21.926673231811524,44.19257547241211C21.926673231811524,44.19257547241211,20.844683231811523,44.19257547241211,20.844683231811523,44.19257547241211C20.844683231811523,44.19257547241211,18.297843231811523,37.01812547241211,18.297843231811523,37.01812547241211C18.297843231811523,37.01812547241211,18.231283231811524,37.01812547241211,18.231283231811524,37.01812547241211C18.231283231811524,37.01812547241211,15.684443231811523,44.19257547241211,15.684443231811523,44.19257547241211C15.684443231811523,44.19257547241211,15.684443231811523,44.19257547241211,15.684443231811523,44.19257547241211ZM16.083933231811525,40.86327547241211C16.083933231811525,40.86327547241211,20.445183231811523,40.86327547241211,20.445183231811523,40.86327547241211C20.445183231811523,40.86327547241211,20.445183231811523,41.77874547241211,20.445183231811523,41.77874547241211C20.445183231811523,41.77874547241211,16.083933231811525,41.77874547241211,16.083933231811525,41.77874547241211C16.083933231811525,41.77874547241211,16.083933231811525,40.86327547241211,16.083933231811525,40.86327547241211C16.083933231811525,40.86327547241211,16.083933231811525,40.86327547241211,16.083933231811525,40.86327547241211Z" fill="#D3185C" fill-opacity="1"/></g><g><path d="M25.7177396887207,44.32570486206055C25.140709688720705,44.32570486206055,24.634449688720704,44.18835486206055,24.198749688720703,43.913674862060546C23.7660936887207,43.638984862060546,23.427585688720704,43.254844862060544,23.1834376887207,42.76101486206055C22.942077688720705,42.267184862060546,22.821399688720703,41.690154862060545,22.821399688720703,41.02968486206055C22.821399688720703,40.36382486206055,22.942077688720705,39.78281486206055,23.1834376887207,39.28617486206055C23.427585688720704,38.78953486206055,23.7660936887207,38.40398486206055,24.198749688720703,38.12929486206055C24.634449688720704,37.85460486206055,25.140709688720705,37.717264862060546,25.7177396887207,37.717264862060546C26.294769688720702,37.717264862060546,26.799839688720702,37.85460486206055,27.232499688720704,38.12929486206055C27.668199688720705,38.40398486206055,28.006639688720703,38.78953486206055,28.248049688720705,39.28617486206055C28.492029688720702,39.78281486206055,28.614139688720705,40.36382486206055,28.614139688720705,41.02968486206055C28.614139688720705,41.690154862060545,28.492029688720702,42.267184862060546,28.248049688720705,42.76101486206055C28.006639688720703,43.254844862060544,27.668199688720705,43.638984862060546,27.232499688720704,43.913674862060546C26.799839688720702,44.18835486206055,26.294769688720702,44.32570486206055,25.7177396887207,44.32570486206055C25.7177396887207,44.32570486206055,25.7177396887207,44.32570486206055,25.7177396887207,44.32570486206055ZM25.7177396887207,43.443514862060546C26.156019688720704,43.443514862060546,26.516719688720702,43.33101486206055,26.799839688720702,43.10624486206055C27.082739688720704,42.88171486206055,27.2922696887207,42.58616486206055,27.428199688720703,42.21984486206055C27.564139688720704,41.853744862060545,27.632109688720703,41.45695486206055,27.632109688720703,41.02968486206055C27.632109688720703,40.602424862060545,27.564139688720704,40.204454862060544,27.428199688720703,39.83531486206055C27.2922696887207,39.46640486206055,27.082739688720704,39.168284862060545,26.799839688720702,38.94070486206055C26.516719688720702,38.713124862060546,26.156019688720704,38.59945486206055,25.7177396887207,38.59945486206055C25.279459688720703,38.59945486206055,24.918749688720702,38.713124862060546,24.635859688720704,38.94070486206055C24.352739688720703,39.168284862060545,24.143439688720704,39.46640486206055,24.007499688720703,39.83531486206055C23.8715596887207,40.204454862060544,23.8035956887207,40.602424862060545,23.8035956887207,41.02968486206055C23.8035956887207,41.45695486206055,23.8715596887207,41.853744862060545,24.007499688720703,42.21984486206055C24.143439688720704,42.58616486206055,24.352739688720703,42.88171486206055,24.635859688720704,43.10624486206055C24.918749688720702,43.33101486206055,25.279459688720703,43.443514862060546,25.7177396887207,43.443514862060546C25.7177396887207,43.443514862060546,25.7177396887207,43.443514862060546,25.7177396887207,43.443514862060546ZM24.519379688720704,36.735234862060544C24.344529688720705,36.735234862060544,24.189139688720704,36.66843486206055,24.053199688720703,36.535314862060545C23.920079688720705,36.39937386206055,23.853519688720702,36.24398286206055,23.853519688720702,36.06937286206055C23.853519688720702,35.877888862060544,23.920079688720705,35.71968686206055,24.053199688720703,35.59476486206054C24.189139688720704,35.46726526206055,24.344529688720705,35.40351486206055,24.519379688720704,35.40351486206055C24.710629688720704,35.40351486206055,24.8688296887207,35.46726526206055,24.993749688720705,35.59476486206054C25.121249688720702,35.71968686206055,25.1849996887207,35.877888862060544,25.1849996887207,36.06937286206055C25.1849996887207,36.24398286206055,25.121249688720702,36.39937386206055,24.993749688720705,36.535314862060545C24.8688296887207,36.66843486206055,24.710629688720704,36.735234862060544,24.519379688720704,36.735234862060544C24.519379688720704,36.735234862060544,24.519379688720704,36.735234862060544,24.519379688720704,36.735234862060544ZM26.9163296887207,36.735234862060544C26.741479688720702,36.735234862060544,26.586099688720704,36.66843486206055,26.450159688720703,36.535314862060545C26.3170296887207,36.39937386206055,26.250469688720703,36.24398286206055,26.250469688720703,36.06937286206055C26.250469688720703,35.877888862060544,26.3170296887207,35.71968686206055,26.450159688720703,35.59476486206054C26.586099688720704,35.46726526206055,26.741479688720702,35.40351486206055,26.9163296887207,35.40351486206055C27.107809688720703,35.40351486206055,27.265779688720702,35.46726526206055,27.3906996887207,35.59476486206054C27.518439688720704,35.71968686206055,27.582189688720703,35.877888862060544,27.582189688720703,36.06937286206055C27.582189688720703,36.24398286206055,27.518439688720704,36.39937386206055,27.3906996887207,36.535314862060545C27.265779688720702,36.66843486206055,27.107809688720703,36.735234862060544,26.9163296887207,36.735234862060544C26.9163296887207,36.735234862060544,26.9163296887207,36.735234862060544,26.9163296887207,36.735234862060544Z" fill="#070026" fill-opacity="1"/></g><g><path d="M45.303989360351565,42.59460987670899C45.303989360351565,42.59460987670899,45.303989360351565,42.14506987670899,45.303989360351565,42.14506987670899C45.303989360351565,41.834289876708986,45.36772936035156,41.54999987670898,45.495469360351564,41.29194987670898C45.625779360351565,41.03108987670898,45.81444936035156,40.82319987670898,46.061489360351565,40.667809876708986C46.31109936035156,40.509609876708986,46.61343936035156,40.43061987670899,46.968749360351566,40.43061987670899C47.32921936035156,40.43061987670899,47.631799360351565,40.509609876708986,47.875779360351565,40.667809876708986C48.119999360351564,40.82319987670898,48.30444936035156,41.03108987670898,48.42937936035156,41.29194987670898C48.55405936035156,41.54999987670898,48.61663936035156,41.834289876708986,48.61663936035156,42.14506987670899C48.61663936035156,42.14506987670899,48.61663936035156,42.59460987670899,48.61663936035156,42.59460987670899C48.61663936035156,42.905159876708986,48.55265936035156,43.190859876708984,48.425159360351564,43.451719876708985C48.300229360351565,43.709759876708986,48.11437936035156,43.91788987670898,47.86757936035156,44.076089876708984C47.623359360351564,44.231249876708986,47.32382936035156,44.309059876708986,46.968749360351566,44.309059876708986C46.608049360351565,44.309059876708986,46.304299360351564,44.231249876708986,46.05726936035156,44.076089876708984C45.81046936035156,43.91788987670898,45.62296936035156,43.709759876708986,45.495469360351564,43.451719876708985C45.36772936035156,43.190859876708984,45.303989360351565,42.905159876708986,45.303989360351565,42.59460987670899C45.303989360351565,42.59460987670899,45.303989360351565,42.59460987670899,45.303989360351565,42.59460987670899ZM46.152889360351566,42.14506987670899C46.152889360351566,42.14506987670899,46.152889360351566,42.59460987670899,46.152889360351566,42.59460987670899C46.152889360351566,42.852419876708986,46.21405936035156,43.084219876708985,46.33616936035156,43.28952987670898C46.458049360351566,43.49202987670898,46.66898936035156,43.59327987670898,46.968749360351566,43.59327987670898C47.259849360351566,43.59327987670898,47.465159360351564,43.49202987670898,47.58444936035156,43.28952987670898C47.70655936035156,43.084219876708985,47.76772936035157,42.852419876708986,47.76772936035157,42.59460987670899C47.76772936035157,42.59460987670899,47.76772936035157,42.14506987670899,47.76772936035157,42.14506987670899C47.76772936035157,41.887029876708986,47.70936936035156,41.65686987670898,47.59288936035156,41.454139876708986C47.476399360351564,41.24905987670898,47.26827936035156,41.14639987670898,46.968749360351566,41.14639987670898C46.677419360351564,41.14639987670898,46.46788936035156,41.24905987670898,46.34014936035156,41.454139876708986C46.21546936035156,41.65686987670898,46.152889360351566,41.887029876708986,46.152889360351566,42.14506987670899C46.152889360351566,42.14506987670899,46.152889360351566,42.14506987670899,46.152889360351566,42.14506987670899ZM41.05921936035156,37.71725987670899C41.05921936035156,37.71725987670899,41.05921936035156,37.267729876708984,41.05921936035156,37.267729876708984C41.05921936035156,36.95694987670898,41.12320226035156,36.67264987670899,41.25070236035156,36.41460687670899C41.38124936035156,36.15398187670898,41.56968836035156,35.945857876708985,41.81672036035156,35.79046787670899C42.06632936035156,35.63226447670898,42.368909360351566,35.553279876708984,42.72398936035156,35.553279876708984C43.08468936035156,35.553279876708984,43.38702936035156,35.63226447670898,43.631019360351566,35.79046787670899C43.87522936035156,35.945857876708985,44.05968936035156,36.15398187670898,44.184609360351565,36.41460687670899C44.30952936035156,36.67264987670899,44.37186936035156,36.95694987670898,44.37186936035156,37.267729876708984C44.37186936035156,37.267729876708984,44.37186936035156,37.71725987670899,44.37186936035156,37.71725987670899C44.37186936035156,38.02803987670899,44.30811936035156,38.31374987670898,44.18038936035156,38.57460987670898C44.05569936035156,38.83241987670898,43.86960936035156,39.04054987670899,43.62280936035156,39.19874987670899C43.37858936035156,39.354139876708985,43.079059360351565,39.43171987670898,42.72398936035156,39.43171987670898C42.36327936035156,39.43171987670898,42.05952936035156,39.354139876708985,41.812500360351564,39.19874987670899C41.56570336035156,39.04054987670899,41.378436360351564,38.83241987670898,41.25070236035156,38.57460987670898C41.12320226035156,38.31374987670898,41.05921936035156,38.02803987670899,41.05921936035156,37.71725987670899C41.05921936035156,37.71725987670899,41.05921936035156,37.71725987670899,41.05921936035156,37.71725987670899ZM41.90835736035156,37.267729876708984C41.90835736035156,37.267729876708984,41.90835736035156,37.71725987670899,41.90835736035156,37.71725987670899C41.90835736035156,37.975309876708984,41.96929536035156,38.206869876708986,42.09140936035156,38.412189876708986C42.213509360351566,38.61468987670899,42.424219360351564,38.71593987670899,42.72398936035156,38.71593987670899C43.015309360351566,38.71593987670899,43.22061936035156,38.61468987670899,43.339919360351566,38.412189876708986C43.46179936035156,38.206869876708986,43.52296936035156,37.975309876708984,43.52296936035156,37.71725987670899C43.52296936035156,37.71725987670899,43.52296936035156,37.267729876708984,43.52296936035156,37.267729876708984C43.52296936035156,37.00968987670898,43.46460936035156,36.779529876708985,43.34811936035156,36.577029876708984C43.231639360351565,36.371717876708985,43.023519360351564,36.269060876708984,42.72398936035156,36.269060876708984C42.432659360351565,36.269060876708984,42.223129360351564,36.371717876708985,42.095629360351566,36.577029876708984C41.970703360351564,36.779529876708985,41.90835736035156,37.00968987670898,41.90835736035156,37.267729876708984C41.90835736035156,37.267729876708984,41.90835736035156,37.267729876708984,41.90835736035156,37.267729876708984ZM41.37562636035156,44.19256987670899C41.37562636035156,44.19256987670899,47.234999360351566,35.669763876708984,47.234999360351566,35.669763876708984C47.234999360351566,35.669763876708984,48.18374936035156,35.669763876708984,48.18374936035156,35.669763876708984C48.18374936035156,35.669763876708984,42.32436936035156,44.19256987670899,42.32436936035156,44.19256987670899C42.32436936035156,44.19256987670899,41.37562636035156,44.19256987670899,41.37562636035156,44.19256987670899C41.37562636035156,44.19256987670899,41.37562636035156,44.19256987670899,41.37562636035156,44.19256987670899Z" fill="#D3185C" fill-opacity="1"/></g><g><path d="M52.994535551757814,42.694451875C52.994535551757814,42.694451875,52.994535551757814,37.201171875,52.994535551757814,37.201171875C52.994535551757814,37.201171875,53.926645551757815,37.201171875,53.926645551757815,37.201171875C53.926645551757815,37.201171875,53.926645551757815,42.694451875,53.926645551757815,42.694451875C53.926645551757815,42.694451875,52.994535551757814,42.694451875,52.994535551757814,42.694451875C52.994535551757814,42.694451875,52.994535551757814,42.694451875,52.994535551757814,42.694451875ZM50.71406555175781,40.413981875C50.71406555175781,40.413981875,50.71406555175781,39.481641875,50.71406555175781,39.481641875C50.71406555175781,39.481641875,56.20711555175781,39.481641875,56.20711555175781,39.481641875C56.20711555175781,39.481641875,56.20711555175781,40.413981875,56.20711555175781,40.413981875C56.20711555175781,40.413981875,50.71406555175781,40.413981875,50.71406555175781,40.413981875C50.71406555175781,40.413981875,50.71406555175781,40.413981875,50.71406555175781,40.413981875Z" fill="#070026" fill-opacity="1"/></g></g></svg>