<svg width="24" height="24" viewBox="0 0 24 24" fill="none" xmlns="http://www.w3.org/2000/svg">
<g id="language">
<path id="Vector" d="M10.6962 11.9997C10.6962 12.115 10.6504 12.2256 10.5688 12.3071C10.4873 12.3886 10.3767 12.4344 10.2614 12.4344H5.04417C4.92887 12.4344 4.81828 12.3886 4.73675 12.3071C4.65521 12.2256 4.60941 12.115 4.60941 11.9997C4.60941 11.8844 4.65521 11.7738 4.73675 11.6923C4.81828 11.6107 4.92887 11.5649 5.04417 11.5649H10.2614C10.3767 11.5649 10.4873 11.6107 10.5688 11.6923C10.6504 11.7738 10.6962 11.8844 10.6962 11.9997ZM10.2614 8.08676H5.04417C4.92887 8.08676 4.81828 8.13257 4.73675 8.2141C4.65521 8.29564 4.60941 8.40622 4.60941 8.52153C4.60941 8.63684 4.65521 8.74742 4.73675 8.82896C4.81828 8.91049 4.92887 8.9563 5.04417 8.9563H10.2614C10.3767 8.9563 10.4873 8.91049 10.5688 8.82896C10.6504 8.74742 10.6962 8.63684 10.6962 8.52153C10.6962 8.40622 10.6504 8.29564 10.5688 8.2141C10.4873 8.13257 10.3767 8.08676 10.2614 8.08676ZM22.0001 14.58V21.5646C22.0003 21.641 21.9803 21.716 21.9421 21.7822C21.904 21.8484 21.8492 21.9034 21.783 21.9416C21.7169 21.9798 21.6419 22 21.5655 22C21.4892 22 21.4141 21.9799 21.348 21.9418L18.522 20.3266L15.696 21.9418C15.6299 21.9799 15.5548 22 15.4785 22C15.4021 22 15.3271 21.9798 15.261 21.9416C15.1948 21.9034 15.14 21.8484 15.1019 21.7822C15.0637 21.716 15.0437 21.641 15.0439 21.5646V18.5212H1.56602C1.2201 18.5212 0.888346 18.3838 0.643741 18.1392C0.399136 17.8946 0.261719 17.5628 0.261719 17.2169V3.30431C0.261719 2.95838 0.399136 2.62663 0.643741 2.38202C0.888346 2.13742 1.2201 2 1.56602 2H20.6958C21.0418 2 21.3735 2.13742 21.6181 2.38202C21.8627 2.62663 22.0001 2.95838 22.0001 3.30431V6.81072C22.5472 7.29929 22.9848 7.89789 23.2845 8.56732C23.5842 9.23676 23.7391 9.96193 23.7391 10.6954C23.7391 11.4288 23.5842 12.154 23.2845 12.8234C22.9848 13.4929 22.5472 14.0915 22.0001 14.58ZM18.522 6.34769C17.6621 6.34769 16.8215 6.60267 16.1066 7.0804C15.3916 7.55813 14.8343 8.23715 14.5053 9.03159C14.1762 9.82602 14.0901 10.7002 14.2579 11.5436C14.4256 12.3869 14.8397 13.1616 15.4477 13.7697C16.0558 14.3777 16.8304 14.7918 17.6738 14.9595C18.5172 15.1273 19.3914 15.0412 20.1858 14.7121C20.9802 14.383 21.6592 13.8258 22.137 13.1108C22.6147 12.3958 22.8697 11.5553 22.8697 10.6954C22.8697 9.54229 22.4116 8.43644 21.5963 7.62109C20.7809 6.80575 19.6751 6.34769 18.522 6.34769ZM15.0439 17.6517V14.58C14.0902 13.7172 13.4889 12.5327 13.3552 11.2536C13.2215 9.9746 13.5649 8.69126 14.3195 7.64992C15.0741 6.60859 16.1867 5.88264 17.4438 5.6114C18.7008 5.34017 20.0138 5.54276 21.1306 6.1803V3.30431C21.1306 3.189 21.0848 3.07841 21.0033 2.99688C20.9217 2.91534 20.8112 2.86954 20.6958 2.86954H1.56602C1.45072 2.86954 1.34013 2.91534 1.2586 2.99688C1.17706 3.07841 1.13126 3.189 1.13126 3.30431V17.2169C1.13126 17.3322 1.17706 17.4428 1.2586 17.5243C1.34013 17.6059 1.45072 17.6517 1.56602 17.6517H15.0439ZM21.1306 15.2104C20.3382 15.6704 19.4382 15.9126 18.522 15.9126C17.6058 15.9126 16.7058 15.6704 15.9134 15.2104V20.8157L18.3046 19.4484C18.3707 19.4102 18.4457 19.3901 18.522 19.3901C18.5983 19.3901 18.6733 19.4102 18.7394 19.4484L21.1306 20.8157V15.2104Z" fill="black" stroke="black" stroke-width="0.3"/>
</g>
</svg>
