<svg width="1050" height="187" viewBox="0 0 1050 187" fill="none" xmlns="http://www.w3.org/2000/svg">
<path d="M28.9363 5.58572C29.132 4.66131 29.948 4 30.8929 4H78.964C89.3507 4 97.66 6.46 103.892 11.38C110.124 16.3 113.24 23.352 113.24 32.536C113.24 35.488 112.912 38.604 112.256 41.884C110.507 50.412 107.008 57.6827 101.76 63.696C97.0302 69.1302 91.1427 73.2213 84.0973 75.9694C83.0775 76.3671 82.522 77.4869 82.8678 78.5255L94.3155 112.908C101.017 133.035 119.69 146.743 140.9 147.105L368.593 151L611.359 156.5L368.593 162.5L170.904 165.5L124.187 166.892C102.115 167.55 82.226 153.651 75.2549 132.699L58.0994 81.1366C57.8275 80.3194 57.0629 79.768 56.2016 79.768H39.7501C38.8046 79.768 37.9883 80.4301 37.7932 81.3552L30.2628 117.049C30.0677 117.974 29.2514 118.636 28.3059 118.636H7.4678C6.19651 118.636 5.24784 117.465 5.51118 116.222L28.9363 5.58572ZM62.892 58.94C70.108 58.94 75.5747 57.628 79.292 55.004C83.1187 52.38 85.688 48.0067 87 41.884C87.4373 40.0253 87.656 38.0573 87.656 35.98C87.656 31.8253 86.2347 28.928 83.392 27.288C80.6587 25.648 76.2307 24.828 70.108 24.828H51.3932C50.4481 24.828 49.6321 25.4895 49.4365 26.4141L43.0666 56.5261C42.8036 57.7697 43.7522 58.94 45.0233 58.94H62.892Z" fill="#0168C9"/>
<path d="M147.944 121.096C135.917 121.096 126.132 118.253 118.588 112.568C111.044 106.883 107.272 98.9013 107.272 88.624C107.272 85.8907 107.6 82.884 108.256 79.604C111.099 66.3747 116.948 56.0427 125.804 48.608C134.769 41.1733 146.796 37.456 161.884 37.456C169.865 37.456 176.535 38.932 181.892 41.884C187.359 44.7267 191.404 48.608 194.028 53.528C196.761 58.3387 198.128 63.696 198.128 69.6C198.128 72.4427 197.8 75.2853 197.144 78.128L195.349 86.5489C195.153 87.4721 194.337 88.132 193.393 88.132H131.983C130.912 88.132 130.014 88.9793 130.095 90.047C130.759 98.829 139.059 103.22 154.996 103.22C160.025 103.22 165.328 102.783 170.904 101.908C175.042 101.259 178.819 100.429 182.235 99.4185C183.741 98.9729 185.232 100.29 184.899 101.825L182.118 114.64C181.977 115.292 181.521 115.834 180.894 116.064C176.915 117.528 172.055 118.713 166.312 119.62C160.08 120.604 153.957 121.096 147.944 121.096ZM173.269 72.06C174.265 72.06 175.117 71.3287 175.221 70.3389C175.295 69.6352 175.332 69.061 175.332 68.616C175.332 59.8693 169.428 55.496 157.62 55.496C151.388 55.496 146.14 56.972 141.876 59.924C138.418 62.381 135.907 65.5954 134.342 69.5672C133.858 70.797 134.818 72.06 136.14 72.06H173.269Z" fill="#0168C9"/>
<path d="M233.965 121.096C228.061 121.096 221.883 120.44 215.432 119.128C209.769 118.054 205.282 116.544 201.973 114.597C201.272 114.185 200.947 113.36 201.115 112.564L204.316 97.4549C204.612 96.0609 206.234 95.4076 207.471 96.1163C210.802 98.0259 214.713 99.6285 219.204 100.924C224.999 102.564 230.521 103.384 235.769 103.384C240.251 103.384 243.586 103.001 245.773 102.236C248.069 101.471 249.435 100.049 249.872 97.972C250.2 96.332 249.873 95.02 248.889 94.036C247.905 92.9427 246.265 92.0133 243.969 91.248C241.782 90.3733 238.01 89.116 232.652 87.476C224.999 85.0707 219.368 82.3373 215.76 79.276C212.152 76.2147 210.348 72.2787 210.348 67.468C210.348 65.6093 210.567 63.8053 211.005 62.056C212.863 53.7467 217.346 47.5693 224.452 43.524C231.559 39.4787 240.907 37.456 252.497 37.456C257.963 37.456 263.485 38.0573 269.061 39.26C274.002 40.2104 277.829 41.4499 280.541 42.9786C281.251 43.3793 281.575 44.2102 281.402 45.0075L278.255 59.4821C277.944 60.9112 276.236 61.5542 274.958 60.8428C272.588 59.5231 269.693 58.3968 266.272 57.464C261.462 56.152 256.651 55.496 251.84 55.496C247.358 55.496 243.804 55.9333 241.18 56.808C238.556 57.6827 236.971 59.3227 236.424 61.728C236.097 63.368 236.534 64.68 237.736 65.664C239.048 66.648 241.235 67.632 244.297 68.616C247.358 69.4907 250.747 70.42 254.465 71.404C262.446 73.7 268.077 76.324 271.357 79.276C274.637 82.1187 276.276 85.8907 276.276 90.592C276.276 92.3413 276.003 94.5827 275.457 97.316C273.926 104.751 269.771 110.6 262.992 114.864C256.323 119.019 246.647 121.096 233.965 121.096Z" fill="#0168C9"/>
<path d="M315.621 121.096C307.312 121.096 300.861 118.909 296.269 114.536C291.786 110.053 289.545 104.149 289.545 96.824C289.545 93.872 289.818 91.248 290.365 88.952L300.523 41.4974C300.72 40.575 301.535 39.916 302.478 39.916H323.148C324.422 39.916 325.372 41.0918 325.103 42.3374L315.621 86.328C315.184 88.4053 314.965 90.3733 314.965 92.232C314.965 95.6213 315.894 98.0813 317.753 99.612C319.612 101.033 322.564 101.744 326.609 101.744C330.764 101.744 334.864 100.76 338.909 98.792C342.824 96.8875 346.38 94.0615 349.578 90.3141C349.789 90.067 349.933 89.77 350 89.4524L360.22 41.4991C360.416 40.576 361.232 39.916 362.176 39.916H382.851C384.123 39.916 385.072 41.0876 384.808 42.3317L368.93 117.052C368.734 117.975 367.918 118.636 366.973 118.636H347.105C345.838 118.636 344.89 117.472 345.147 116.231L345.353 115.235C345.747 113.329 343.358 111.924 341.76 113.034C338.687 115.17 335.386 116.874 331.857 118.144C326.5 120.112 321.088 121.096 315.621 121.096Z" fill="#0168C9"/>
<path d="M402.243 41.5003C402.439 40.5766 403.255 39.916 404.199 39.916H423.206C424.487 39.916 425.437 41.1034 425.157 42.3534L424.971 43.1852C424.542 45.0981 426.937 46.5335 428.536 45.3999C431.274 43.4595 434.156 41.8502 437.184 40.572C442.104 38.4947 447.024 37.456 451.944 37.456C457.957 37.456 462.549 38.3853 465.72 40.244C468.086 41.6314 469.935 43.5671 471.266 46.0511C471.936 47.3014 473.617 47.7586 474.745 46.8995C478.312 44.1848 482.246 42.021 486.548 40.408C491.905 38.44 496.989 37.456 501.8 37.456C516.997 37.456 524.596 44.2347 524.596 57.792C524.596 60.1973 524.213 63.4227 523.448 67.468L512.959 117.05C512.763 117.975 511.947 118.636 511.002 118.636H491.47C490.201 118.636 489.252 117.468 489.513 116.226L499.012 70.912C499.558 68.3973 499.832 66.3747 499.832 64.844C499.832 62.0013 499.012 59.9787 497.372 58.776C495.841 57.464 493.272 56.808 489.664 56.808C483.746 56.808 478.442 59.0547 473.75 63.548C473.431 63.8531 473.233 64.2611 473.173 64.698C472.847 67.0434 472.386 69.6614 471.788 72.552L462.445 117.047C462.251 117.973 461.434 118.636 460.488 118.636H440.794C439.524 118.636 438.576 117.469 438.836 116.226L448.5 70.092C449.046 67.5773 449.32 65.6093 449.32 64.188C449.32 61.564 448.554 59.7053 447.024 58.612C445.602 57.4093 443.306 56.808 440.136 56.808C433.804 56.808 427.367 60.3365 420.825 67.3934C420.583 67.655 420.417 67.9801 420.344 68.3292L410.129 117.046C409.935 117.973 409.118 118.636 408.171 118.636H388.321C387.049 118.636 386.101 117.464 386.365 116.22L402.243 41.5003Z" fill="#0168C9"/>
<path d="M573.639 121.096C561.613 121.096 551.827 118.253 544.283 112.568C536.739 106.883 532.967 98.9013 532.967 88.624C532.967 85.8907 533.295 82.884 533.951 79.604C536.794 66.3747 542.643 56.0427 551.499 48.608C560.465 41.1733 572.491 37.456 587.579 37.456C595.561 37.456 602.23 38.932 607.587 41.884C613.054 44.7267 617.099 48.608 619.723 53.528C622.457 58.3387 623.823 63.696 623.823 69.6C623.823 72.4427 623.495 75.2853 622.839 78.128L621.045 86.5489C620.848 87.4721 620.033 88.132 619.089 88.132H557.678C556.607 88.132 555.709 88.9793 555.79 90.047C556.454 98.829 564.754 103.22 580.691 103.22C585.721 103.22 591.023 102.783 596.599 101.908C600.738 101.259 604.515 100.429 607.931 99.4185C609.437 98.9729 610.927 100.29 610.594 101.825L607.814 114.64C607.672 115.292 607.216 115.834 606.59 116.064C602.611 117.528 597.75 118.713 592.007 119.62C585.775 120.604 579.653 121.096 573.639 121.096ZM598.965 72.06C599.96 72.06 600.812 71.3287 600.916 70.3389C600.99 69.6352 601.027 69.061 601.027 68.616C601.027 59.8693 595.123 55.496 583.315 55.496C577.083 55.496 571.835 56.972 567.571 59.924C564.113 62.381 561.602 65.5954 560.038 69.5672C559.553 70.797 560.514 72.06 561.836 72.06H598.965Z" fill="#0168C9"/>
<path d="M669.903 127.656C662.906 127.656 656.127 127 649.567 125.688C643.707 124.516 638.893 122.995 635.127 121.124C634.342 120.735 633.945 119.856 634.125 118.998L637.866 101.092C638.14 99.7819 639.599 99.1053 640.801 99.6962C645.345 101.931 650.126 103.652 655.143 104.86C661.047 106.281 666.842 106.992 672.527 106.992C679.634 106.992 685.101 105.625 688.927 102.892C692.863 100.159 694.831 96.4413 694.831 91.74C694.831 88.5693 693.355 85.9453 690.403 83.868C687.561 81.7907 682.313 79.0573 674.659 75.668C666.35 71.9507 660.282 67.96 656.455 63.696C652.629 59.3227 650.715 54.184 650.715 48.28C650.715 46.312 650.989 43.852 651.535 40.9C652.847 34.4493 655.799 28.764 660.391 23.844C664.983 18.8147 670.723 14.9333 677.611 12.2C684.499 9.46666 692.098 8.1 700.407 8.1C707.186 8.1 713.09 8.64666 718.119 9.73999C722.736 10.7223 727.088 12.1899 731.175 14.1429C731.992 14.5334 732.419 15.4398 732.228 16.3252L728.528 33.5036C728.245 34.817 726.773 35.4832 725.572 34.8817C717.644 30.9126 709.311 28.928 700.571 28.928C694.449 28.928 689.419 30.0213 685.483 32.208C681.547 34.2853 679.142 37.292 678.267 41.228C678.049 42.3213 677.939 43.1413 677.939 43.688C677.939 45.984 678.65 47.952 680.071 49.592C681.602 51.1227 683.625 52.544 686.139 53.856C688.654 55.168 692.699 57.0267 698.275 59.432C707.022 63.368 713.254 67.304 716.971 71.24C720.798 75.176 722.711 80.1507 722.711 86.164C722.711 88.6787 722.383 91.5213 721.727 94.692C719.541 105.079 714.074 113.169 705.327 118.964C696.581 124.759 684.773 127.656 669.903 127.656Z" fill="#E4001E"/>
<path d="M764.648 127.656C754.589 127.656 746.444 124.759 740.212 118.964C733.98 113.169 730.864 105.407 730.864 95.676C730.864 92.6147 731.192 89.3893 731.848 86C733.597 77.8 736.932 70.5293 741.852 64.188C746.772 57.8467 752.731 52.9267 759.728 49.428C766.835 45.82 774.433 44.016 782.524 44.016C792.741 44.016 800.669 46.3042 806.31 50.8806C807.567 51.9004 809.596 51.3601 809.963 49.7835L810.372 48.023C810.583 47.1171 811.39 46.476 812.32 46.476H833.026C834.298 46.476 835.247 47.6476 834.982 48.8917L819.104 123.612C818.908 124.535 818.093 125.196 817.148 125.196H797.291C796.02 125.196 795.071 124.026 795.334 122.782L795.496 122.018C795.882 120.194 793.738 118.824 792.17 119.832C788.68 122.074 785.137 123.808 781.54 125.032C776.511 126.781 770.88 127.656 764.648 127.656ZM774.324 108.468C779.9 108.468 784.984 107.156 789.576 104.532C794.184 101.853 797.846 98.2287 800.564 93.6591C800.673 93.4749 800.75 93.2731 800.794 93.0633L803.776 78.7792C803.821 78.5652 803.831 78.3448 803.801 78.1283C803.197 73.7972 801.189 70.2984 797.776 67.632C794.277 64.7893 789.959 63.368 784.82 63.368C778.151 63.368 772.246 65.4453 767.108 69.6C761.969 73.7547 758.689 79.2213 757.268 86C756.612 88.952 756.284 91.6853 756.284 94.2C756.284 99.0107 757.705 102.619 760.548 105.024C763.391 107.32 767.983 108.468 774.324 108.468Z" fill="#E4001E"/>
<path d="M863.337 127.656C856.121 127.656 850.545 125.688 846.609 121.752C842.673 117.707 840.705 112.459 840.705 106.008C840.705 103.931 840.979 101.525 841.525 98.792L848.236 66.7621C848.497 65.5196 847.548 64.352 846.279 64.352H839.75C838.472 64.352 837.522 63.1699 837.796 61.9219L840.852 48.0459C841.054 47.129 841.866 46.476 842.805 46.476H851.051C851.998 46.476 852.816 45.8113 853.009 44.8839L857.266 24.4521C857.459 23.5247 858.276 22.86 859.224 22.86H879.902C881.17 22.86 882.118 24.0259 881.86 25.2679L877.943 44.0681C877.684 45.3101 878.632 46.476 879.901 46.476H893.485C894.763 46.476 895.713 47.6581 895.438 48.9061L892.383 62.7821C892.181 63.699 891.369 64.352 890.43 64.352H875.128C874.182 64.352 873.366 65.0145 873.171 65.94L866.945 95.512C866.399 98.464 866.125 100.596 866.125 101.908C866.125 104.423 866.836 106.172 868.257 107.156C869.788 108.031 872.412 108.468 876.129 108.468C878.484 108.468 880.912 108.072 883.415 107.28C884.982 106.784 886.633 108.123 886.292 109.73L883.405 123.323C883.265 123.98 882.806 124.527 882.174 124.755C876.814 126.689 870.535 127.656 863.337 127.656Z" fill="#E4001E"/>
<path d="M919.863 5.58438C920.059 4.6606 920.875 4 921.819 4H942.492C943.764 4 944.713 5.1728 944.447 6.41736L935.206 49.7288C934.807 51.5982 937.08 52.9945 938.668 51.9298C941.772 49.8478 945.018 48.1939 948.407 46.968C953.546 45 958.794 44.016 964.151 44.016C972.461 44.016 978.857 46.312 983.339 50.904C987.822 55.496 990.063 61.4 990.063 68.616C990.063 70.6933 989.79 73.0987 989.243 75.832L979.244 123.606C979.05 124.532 978.233 125.196 977.287 125.196H956.614C955.343 125.196 954.394 124.026 954.657 122.783L963.987 78.62C964.425 76.7613 964.643 74.848 964.643 72.88C964.643 69.8187 963.714 67.468 961.855 65.828C960.106 64.188 957.209 63.368 953.163 63.368C949.009 63.368 944.909 64.4067 940.863 66.484C936.952 68.3868 933.347 71.2095 930.049 74.9521C929.826 75.2053 929.675 75.5131 929.605 75.8433L919.55 123.608C919.355 124.534 918.538 125.196 917.592 125.196H896.921C895.649 125.196 894.7 124.024 894.964 122.78L919.863 5.58438Z" fill="#E4001E"/>
<path d="M1028.15 34.34C1024.76 34.34 1022.03 33.4107 1019.95 31.552C1017.98 29.584 1017 27.0693 1017 24.008C1017 19.5253 1018.69 15.6987 1022.08 12.528C1025.58 9.35733 1029.52 7.772 1033.89 7.772C1037.17 7.772 1039.79 8.756 1041.76 10.724C1043.84 12.5827 1044.88 15.0427 1044.88 18.104C1044.88 22.5867 1043.18 26.4133 1039.79 29.584C1036.4 32.7547 1032.52 34.34 1028.15 34.34ZM1012.89 48.0603C1013.09 47.1366 1013.9 46.476 1014.85 46.476H1035.68C1036.96 46.476 1037.9 47.6476 1037.64 48.8917L1021.76 123.612C1021.57 124.535 1020.75 125.196 1019.81 125.196H998.967C997.695 125.196 996.747 124.024 997.011 122.78L1012.89 48.0603Z" fill="#E4001E"/>
<path d="M645.796 150.726L633.028 168.954L631.054 180H627.232L629.206 168.954L622.822 150.726H627.106L631.684 165.468L641.47 150.726H645.796Z" fill="#555555"/>
<path d="M654.322 180.378C652.39 180.378 650.682 179.986 649.198 179.202C647.742 178.39 646.608 177.27 645.796 175.842C644.984 174.386 644.578 172.706 644.578 170.802C644.578 168.198 645.18 165.818 646.384 163.662C647.588 161.478 649.24 159.756 651.34 158.496C653.468 157.236 655.834 156.606 658.438 156.606C660.37 156.606 662.078 157.012 663.562 157.824C665.074 158.608 666.236 159.728 667.048 161.184C667.888 162.612 668.308 164.292 668.308 166.224C668.308 168.828 667.692 171.208 666.46 173.364C665.228 175.52 663.548 177.228 661.42 178.488C659.292 179.748 656.926 180.378 654.322 180.378ZM654.784 177.144C656.604 177.144 658.242 176.654 659.698 175.674C661.154 174.666 662.288 173.35 663.1 171.726C663.94 170.074 664.36 168.31 664.36 166.434C664.36 164.306 663.744 162.682 662.512 161.562C661.28 160.414 659.74 159.84 657.892 159.84C656.072 159.84 654.448 160.344 653.02 161.352C651.592 162.332 650.486 163.648 649.702 165.3C648.918 166.952 648.526 168.73 648.526 170.634C648.526 172.706 649.114 174.316 650.29 175.464C651.466 176.584 652.964 177.144 654.784 177.144Z" fill="#555555"/>
<path d="M695.131 156.984L691.057 180H687.235L687.823 176.64C686.899 177.816 685.723 178.726 684.295 179.37C682.867 180.014 681.383 180.336 679.843 180.336C677.435 180.336 675.503 179.692 674.047 178.404C672.619 177.088 671.905 175.212 671.905 172.776C671.905 172.16 671.975 171.39 672.115 170.466L674.509 156.984H678.289L676.021 169.962C675.909 170.55 675.853 171.166 675.853 171.81C675.853 173.518 676.315 174.82 677.239 175.716C678.191 176.584 679.507 177.018 681.187 177.018C683.203 177.018 684.911 176.388 686.311 175.128C687.739 173.868 688.649 172.034 689.041 169.626V169.752L691.309 156.984H695.131Z" fill="#555555"/>
<path d="M704.23 161.352C705.154 159.84 706.316 158.664 707.716 157.824C709.116 156.984 710.712 156.564 712.504 156.564L711.79 160.512H710.782C708.794 160.512 707.128 161.044 705.784 162.108C704.468 163.172 703.586 164.964 703.138 167.484L700.912 180H697.09L701.164 156.984H704.986L704.23 161.352Z" fill="#555555"/>
<path d="M725.604 165.342C726.108 162.486 727.2 159.924 728.88 157.656C730.588 155.36 732.66 153.568 735.096 152.28C737.56 150.992 740.136 150.348 742.824 150.348C746.016 150.348 748.662 151.118 750.762 152.658C752.89 154.198 754.262 156.382 754.878 159.21H750.3C749.796 157.502 748.858 156.186 747.486 155.262C746.114 154.31 744.364 153.834 742.236 153.834C740.192 153.834 738.274 154.31 736.482 155.262C734.718 156.186 733.22 157.53 731.988 159.294C730.756 161.03 729.93 163.046 729.51 165.342C729.37 166.07 729.3 166.91 729.3 167.862C729.3 170.606 730.098 172.79 731.694 174.414C733.318 176.01 735.474 176.808 738.162 176.808C740.29 176.808 742.208 176.346 743.916 175.422C745.624 174.498 747.024 173.182 748.116 171.474H752.694C751.098 174.274 748.97 176.444 746.31 177.984C743.678 179.496 740.766 180.252 737.574 180.252C735.194 180.252 733.08 179.762 731.232 178.782C729.384 177.774 727.942 176.374 726.906 174.582C725.87 172.762 725.352 170.676 725.352 168.324C725.352 167.344 725.436 166.35 725.604 165.342Z" fill="#555555"/>
<path d="M757.039 168.408C757.459 166.056 758.299 163.998 759.559 162.234C760.847 160.442 762.401 159.056 764.221 158.076C766.069 157.096 768.029 156.606 770.101 156.606C772.117 156.606 773.783 157.04 775.099 157.908C776.415 158.776 777.325 159.868 777.829 161.184L778.585 156.984H782.449L778.375 180H774.511L775.309 175.716C774.301 177.06 772.971 178.18 771.319 179.076C769.667 179.944 767.847 180.378 765.859 180.378C764.067 180.378 762.485 180 761.113 179.244C759.741 178.46 758.677 177.354 757.921 175.926C757.165 174.498 756.787 172.846 756.787 170.97C756.787 170.13 756.871 169.276 757.039 168.408ZM776.569 168.45C776.681 167.862 776.737 167.232 776.737 166.56C776.737 164.516 776.121 162.906 774.889 161.73C773.685 160.526 772.145 159.924 770.269 159.924C768.841 159.924 767.469 160.26 766.153 160.932C764.865 161.604 763.759 162.584 762.835 163.872C761.911 165.16 761.295 166.672 760.987 168.408C760.875 168.996 760.819 169.64 760.819 170.34C760.819 172.412 761.421 174.05 762.625 175.254C763.829 176.43 765.369 177.018 767.245 177.018C768.673 177.018 770.031 176.682 771.319 176.01C772.635 175.31 773.755 174.316 774.679 173.028C775.631 171.712 776.261 170.186 776.569 168.45Z" fill="#555555"/>
<path d="M791.554 161.352C792.478 159.84 793.64 158.664 795.04 157.824C796.44 156.984 798.036 156.564 799.828 156.564L799.114 160.512H798.106C796.118 160.512 794.452 161.044 793.108 162.108C791.792 163.172 790.91 164.964 790.462 167.484L788.236 180H784.414L788.488 156.984H792.31L791.554 161.352Z" fill="#555555"/>
<path d="M813.732 156.606C815.664 156.606 817.33 156.984 818.73 157.74C820.158 158.468 821.236 159.504 821.964 160.848C822.72 162.164 823.098 163.676 823.098 165.384C823.098 165.972 823.028 166.686 822.888 167.526C822.776 168.254 822.594 169.01 822.342 169.794H803.946C803.89 170.354 803.862 170.76 803.862 171.012C803.862 172.944 804.436 174.456 805.584 175.548C806.76 176.612 808.286 177.144 810.162 177.144C811.814 177.144 813.256 176.766 814.488 176.01C815.748 175.226 816.7 174.19 817.344 172.902H821.46C820.452 175.114 818.898 176.92 816.798 178.32C814.726 179.692 812.318 180.378 809.574 180.378C806.69 180.378 804.366 179.552 802.602 177.9C800.866 176.22 799.998 173.938 799.998 171.054C799.998 170.242 800.082 169.374 800.25 168.45C800.67 166.07 801.524 163.984 802.812 162.192C804.1 160.4 805.682 159.028 807.558 158.076C809.462 157.096 811.52 156.606 813.732 156.606ZM819.024 167.022C819.108 166.462 819.15 165.944 819.15 165.468C819.15 163.676 818.576 162.29 817.428 161.31C816.308 160.33 814.838 159.84 813.018 159.84C811.058 159.84 809.28 160.484 807.684 161.772C806.088 163.032 805.01 164.782 804.45 167.022H819.024Z" fill="#555555"/>
<path d="M839.357 156.606C841.289 156.606 842.955 156.984 844.355 157.74C845.783 158.468 846.861 159.504 847.589 160.848C848.345 162.164 848.723 163.676 848.723 165.384C848.723 165.972 848.653 166.686 848.513 167.526C848.401 168.254 848.219 169.01 847.967 169.794H829.571C829.515 170.354 829.487 170.76 829.487 171.012C829.487 172.944 830.061 174.456 831.209 175.548C832.385 176.612 833.911 177.144 835.787 177.144C837.439 177.144 838.881 176.766 840.113 176.01C841.373 175.226 842.325 174.19 842.969 172.902H847.085C846.077 175.114 844.523 176.92 842.423 178.32C840.351 179.692 837.943 180.378 835.199 180.378C832.315 180.378 829.991 179.552 828.227 177.9C826.491 176.22 825.623 173.938 825.623 171.054C825.623 170.242 825.707 169.374 825.875 168.45C826.295 166.07 827.149 163.984 828.437 162.192C829.725 160.4 831.307 159.028 833.183 158.076C835.087 157.096 837.145 156.606 839.357 156.606ZM844.649 167.022C844.733 166.462 844.775 165.944 844.775 165.468C844.775 163.676 844.201 162.29 843.053 161.31C841.933 160.33 840.463 159.84 838.643 159.84C836.683 159.84 834.905 160.484 833.309 161.772C831.713 163.032 830.635 164.782 830.075 167.022H844.649Z" fill="#555555"/>
<path d="M858.052 161.352C858.976 159.84 860.138 158.664 861.538 157.824C862.938 156.984 864.534 156.564 866.326 156.564L865.612 160.512H864.604C862.616 160.512 860.95 161.044 859.606 162.108C858.29 163.172 857.408 164.964 856.96 167.484L854.734 180H850.912L854.986 156.984H858.808L858.052 161.352Z" fill="#555555"/>
<path d="M901.476 159.294C901.056 161.73 899.866 163.76 897.906 165.384C895.946 166.98 893.272 167.778 889.884 167.778H884.256L882.072 180H878.25L883.458 150.726H892.908C895.82 150.726 898.004 151.356 899.46 152.616C900.916 153.848 901.644 155.5 901.644 157.572C901.644 157.936 901.588 158.51 901.476 159.294ZM890.43 164.754C892.53 164.754 894.168 164.278 895.344 163.326C896.52 162.346 897.262 161.002 897.57 159.294C897.654 158.79 897.696 158.328 897.696 157.908C897.696 155.136 895.918 153.75 892.362 153.75H886.734L884.802 164.754H890.43Z" fill="#555555"/>
<path d="M902.74 168.408C903.16 166.056 904 163.998 905.26 162.234C906.548 160.442 908.102 159.056 909.922 158.076C911.77 157.096 913.73 156.606 915.802 156.606C917.818 156.606 919.484 157.04 920.8 157.908C922.116 158.776 923.026 159.868 923.53 161.184L924.286 156.984H928.15L924.076 180H920.212L921.01 175.716C920.002 177.06 918.672 178.18 917.02 179.076C915.368 179.944 913.548 180.378 911.56 180.378C909.768 180.378 908.186 180 906.814 179.244C905.442 178.46 904.378 177.354 903.622 175.926C902.866 174.498 902.488 172.846 902.488 170.97C902.488 170.13 902.572 169.276 902.74 168.408ZM922.27 168.45C922.382 167.862 922.438 167.232 922.438 166.56C922.438 164.516 921.822 162.906 920.59 161.73C919.386 160.526 917.846 159.924 915.97 159.924C914.542 159.924 913.17 160.26 911.854 160.932C910.566 161.604 909.46 162.584 908.536 163.872C907.612 165.16 906.996 166.672 906.688 168.408C906.576 168.996 906.52 169.64 906.52 170.34C906.52 172.412 907.122 174.05 908.326 175.254C909.53 176.43 911.07 177.018 912.946 177.018C914.374 177.018 915.732 176.682 917.02 176.01C918.336 175.31 919.456 174.316 920.38 173.028C921.332 171.712 921.962 170.186 922.27 168.45Z" fill="#555555"/>
<path d="M937.255 161.352C938.179 159.84 939.341 158.664 940.741 157.824C942.141 156.984 943.737 156.564 945.529 156.564L944.815 160.512H943.807C941.819 160.512 940.153 161.044 938.809 162.108C937.493 163.172 936.611 164.964 936.163 167.484L933.937 180H930.115L934.189 156.984H938.011L937.255 161.352Z" fill="#555555"/>
<path d="M951.159 173.7C951.075 174.12 951.033 174.484 951.033 174.792C951.033 175.492 951.243 175.996 951.663 176.304C952.111 176.612 952.825 176.766 953.805 176.766H956.619L956.031 180H952.587C950.767 180 949.395 179.65 948.471 178.95C947.575 178.25 947.127 177.102 947.127 175.506C947.127 174.89 947.183 174.288 947.295 173.7L949.689 160.134H946.749L947.295 156.984H950.277L951.285 151.188H955.149L954.141 156.984H960.105L959.559 160.134H953.553L951.159 173.7Z" fill="#555555"/>
<path d="M975.613 156.564C977.993 156.564 979.897 157.208 981.325 158.496C982.753 159.756 983.467 161.604 983.467 164.04C983.467 164.936 983.397 165.734 983.257 166.434L980.863 180H977.083L979.393 166.98C979.505 166.392 979.561 165.776 979.561 165.132C979.561 163.424 979.085 162.122 978.133 161.226C977.209 160.33 975.907 159.882 974.227 159.882C972.211 159.882 970.489 160.512 969.061 161.772C967.661 163.032 966.751 164.866 966.331 167.274V167.19L964.063 180H960.241L964.315 156.984H968.137L967.549 160.302C968.501 159.098 969.691 158.174 971.119 157.53C972.547 156.886 974.045 156.564 975.613 156.564Z" fill="#555555"/>
<path d="M1000.76 156.606C1002.69 156.606 1004.35 156.984 1005.75 157.74C1007.18 158.468 1008.26 159.504 1008.99 160.848C1009.74 162.164 1010.12 163.676 1010.12 165.384C1010.12 165.972 1010.05 166.686 1009.91 167.526C1009.8 168.254 1009.62 169.01 1009.37 169.794H990.971C990.915 170.354 990.887 170.76 990.887 171.012C990.887 172.944 991.461 174.456 992.609 175.548C993.785 176.612 995.311 177.144 997.187 177.144C998.839 177.144 1000.28 176.766 1001.51 176.01C1002.77 175.226 1003.72 174.19 1004.37 172.902H1008.48C1007.48 175.114 1005.92 176.92 1003.82 178.32C1001.75 179.692 999.343 180.378 996.599 180.378C993.715 180.378 991.391 179.552 989.627 177.9C987.891 176.22 987.023 173.938 987.023 171.054C987.023 170.242 987.107 169.374 987.275 168.45C987.695 166.07 988.549 163.984 989.837 162.192C991.125 160.4 992.707 159.028 994.583 158.076C996.487 157.096 998.545 156.606 1000.76 156.606ZM1006.05 167.022C1006.13 166.462 1006.17 165.944 1006.17 165.468C1006.17 163.676 1005.6 162.29 1004.45 161.31C1003.33 160.33 1001.86 159.84 1000.04 159.84C998.083 159.84 996.305 160.484 994.709 161.772C993.113 163.032 992.035 164.782 991.475 167.022H1006.05Z" fill="#555555"/>
<path d="M1019.45 161.352C1020.38 159.84 1021.54 158.664 1022.94 157.824C1024.34 156.984 1025.93 156.564 1027.73 156.564L1027.01 160.512H1026C1024.02 160.512 1022.35 161.044 1021.01 162.108C1019.69 163.172 1018.81 164.964 1018.36 167.484L1016.13 180H1012.31L1016.39 156.984H1020.21L1019.45 161.352Z" fill="#555555"/>
</svg>
